<svg id="Layer_1" data-name="Layer 1" xmlns="http://www.w3.org/2000/svg" viewBox="0 0 100 100"><defs><style>.cls-1{fill:#231f20;}</style></defs><title>Artboard 11</title><path class="cls-1" d="M51.78,91.39a1.89,1.89,0,0,0-3,0C25,82.94,15.64,53.46,14.5,49.55V34.83a2,2,0,0,0,1.27-1.89,1.78,1.78,0,0,0-.06-.29c6.61-4.35,9.09-12.53,9.92-16.43l23.1-7.06a1.88,1.88,0,0,0,3.08,0l23.1,7.06c.83,3.9,3.31,12.08,9.92,16.43A1.76,1.76,0,0,0,86,34.83V49.56C84.9,53.46,75.57,82.94,51.78,91.39m24.44-75.9-.09-.43L52.23,7.75a2,2,0,0,0-3.9,0L24.41,15.06l-.09.43c-.69,3.49-3,11.65-9.31,15.88a1.92,1.92,0,0,0-1.22-.47,2,2,0,0,0-.72,3.93V49.66l0,.21c1,3.54,10.51,34.15,35.21,42.91a2,2,0,0,0,3.94,0c10.1-3.58,18.82-11,25.9-22.32a85.48,85.48,0,0,0,9.3-20.54l0-15a2,2,0,0,0-.71-3.93,1.92,1.92,0,0,0-1.22.47C79.18,27.14,76.92,19,76.22,15.49M90.59,50.21c-.73,2.69-11,38.47-40.32,46.55C20.91,88.68,10.68,52.91,10,50.21v-20C19,27.61,21.17,16,21.61,12.57L50.27,3.81l28.66,8.76c.44,3.42,2.6,15,11.66,17.69Zm1.56-22.34C82.71,26,81.46,11.57,81.45,11.43l-.08-.92L50.27,1l-31.1,9.51-.08.92c0,.14-1.26,14.54-10.71,16.45l-1.06.21v22.3l0,.34c.1.4,10.45,40.16,42.57,48.73l.33.09.33-.09c32.13-8.57,42.47-48.33,42.57-48.73l0-22.64Z"/></svg>