<svg id="Layer_1" data-name="Layer 1" xmlns="http://www.w3.org/2000/svg" viewBox="0 0 300 220"><defs><style>.cls-1{fill:#231f20;}</style></defs><title>bonds</title><path class="cls-1" d="M297.92,161.16c-1.17-20.41-1.76-38.84-1.76-55v7.68c0-16.16.59-34.59,1.76-55m0,156.73h-3.29c-.65-2.16-2.39-6.6-5.69-7.56-.29-1.21-.81-2.07-1.43-2.07s-1.18.91-1.47,2.2c-2.51.76-5.29,3.19-8.33,7.43H22c-3-4.24-5.82-6.67-8.33-7.43-.28-1.29-.82-2.2-1.47-2.2s-1.14.86-1.43,2.07c-3.3,1-5,5.4-5.69,7.56H1.82V175.75c1.76-26.24,2.67-49.65,2.67-69.59v7.68c0-19.95-.9-43.35-2.67-69.59V4.43H5.11C5.76,6.59,7.5,11,10.8,12c.29,1.21.81,2.07,1.43,2.07s1.18-.91,1.47-2.2C16.2,11.09,19,8.67,22,4.43H277.71c3,4.24,5.82,6.67,8.33,7.43.28,1.29.82,2.2,1.47,2.2s1.14-.85,1.43-2.07c3.3-1,5-5.4,5.69-7.56h3.29V44.25c-1.77,26.24-2.67,49.65-2.67,69.59v-7.68c0,19.95.9,43.35,2.67,69.59ZM1.82,58.84c1.17,20.41,1.76,38.84,1.76,55v-7.68c0,16.16-.59,34.59-1.76,55ZM293.6,0l-.26,1.14c-.05.24-1.28,5.33-4.52,6.39-.31-1-.77-1.67-1.32-1.67s-1,.64-1.29,1.57c-2.3-.72-4.91-3-7.81-7.15L278.2,0H21.53l-.21.3c-2.89,4.1-5.5,6.43-7.81,7.15-.31-.93-.76-1.57-1.29-1.57s-1,.69-1.32,1.67C7.67,6.49,6.45,1.4,6.4,1.17L6.14,0H0V220l6.13,0,.26-1.14c.05-.24,1.28-5.33,4.52-6.39.31,1,.77,1.67,1.32,1.67s1-.64,1.29-1.57c2.3.72,4.91,3,7.81,7.15l.21.3H278.2l.21-.3c2.89-4.1,5.5-6.43,7.81-7.15.31.93.76,1.57,1.29,1.57s1-.68,1.32-1.67c3.24,1.06,4.46,6.15,4.51,6.37l.26,1.17h6.14V0Z"/></svg>