<svg id="Layer_1" data-name="Layer 1" xmlns="http://www.w3.org/2000/svg" viewBox="0 0 413 82.13"><defs><style>.cls-1{fill:#231f20;}</style></defs><title>Artboard 2</title><path class="cls-1" d="M16.88,34c4.6-8.87,7.19-19.51,8.38-25.42a20.18,20.18,0,0,1-2.47-1.22,51,51,0,0,1-1.17,10.49,41.09,41.09,0,0,1-1.15,4.32,41.83,41.83,0,0,1-3.6,8.44m0,22.52a42.12,42.12,0,0,1,3.6,8.44,50.34,50.34,0,0,1,2.32,14.82,20.31,20.31,0,0,1,2.47-1.22c-1.19-5.91-3.78-16.55-8.38-25.42Zm-.52-23.72c1.56-2.87,6.5-13.11,3.89-22.82C19.2,12.5,15.85,28.4,8.53,39.3a4.78,4.78,0,0,0-.1,4.95l.07.11,0,0c7.32,10.89,10.67,26.8,11.73,32.74,2.61-9.7-2.33-20-3.89-22.82l-.52,1.25V47.82a40.49,40.49,0,0,0-3.78-5.56l-.34-.41.34-.41a40.36,40.36,0,0,0,3.78-5.56V28.14Zm-3,12.47c7.69,9.62,11.56,25,13.11,32.82,7.69-2.7,17.75-2.24,19.45-2.15,1.23-.05,2.39-.08,3.42-.08,2.12,0,3.47.09,3.52.1H360c.06,0,1.41-.1,3.53-.1,1,0,2.19,0,3.42.08,1.69-.09,11.76-.55,19.45,2.15,1.55-7.78,5.42-23.2,13.1-32.82-7.68-9.62-11.55-25-13.1-32.82-7.69,2.7-17.75,2.24-19.45,2.14-1.23.06-2.4.08-3.42.08a31.86,31.86,0,0,1-3.53-.09H52.89a31.59,31.59,0,0,1-3.52.09c-1,0-2.19,0-3.42-.08-1.69.1-11.76.56-19.45-2.14C25,16.81,21.08,32.23,13.39,41.85m-8-.41c10.42-12.63,14-37.13,14-37.38l.21-1.49.93,1.17a12.63,12.63,0,0,0,5,3.52c.36-2,.54-3.15.55-3.2l.21-1.49.94,1.17C30.9,8.35,40,9.59,46,9.88h.1v0c1.25.05,2.38.07,3.28.07,2.08,0,3.43-.09,3.44-.09H360.09s1.36.09,3.44.09c.89,0,2,0,3.28-.07v0h.11c6-.29,15.07-1.53,18.76-6.15l.94-1.17.21,1.49c0,.05.17,1.24.55,3.2a12.51,12.51,0,0,0,5-3.52l.94-1.17.21,1.49c0,.25,3.59,24.76,14,37.38l.34.41-.34.41c-10.41,12.63-14,37.14-14,37.38l-.21,1.49L392.4,80a12.49,12.49,0,0,0-5-3.52c-.37,2-.55,3.15-.55,3.2l-.21,1.49L385.69,80c-3.7-4.62-12.77-5.86-18.76-6.15h-.11c-1.26-.05-2.39-.08-3.28-.08-2.08,0-3.43.09-3.49.1H52.85c-.05,0-1.4-.1-3.48-.1-.9,0-2,0-3.28.08H46C40,74.11,30.9,75.35,27.21,80l-.94,1.17-.21-1.49c0-.05-.19-1.24-.55-3.2a12.61,12.61,0,0,0-5,3.52l-.93,1.17-.21-1.49c0-.25-3.6-24.76-14-37.38L5,41.85ZM34.68,9.5a18.23,18.23,0,0,1-7.54-3.94c-.09.57-.23,1.31-.39,2.18A37.69,37.69,0,0,0,34.68,9.5M26.75,76c.17.87.3,1.61.39,2.18A18.27,18.27,0,0,1,34.7,74.2,37.77,37.77,0,0,0,26.75,76m359.39,0a37.68,37.68,0,0,0-7.94-1.76,18.28,18.28,0,0,1,7.55,3.94c.09-.57.23-1.31.38-2.18m1.5-.82a19.29,19.29,0,0,1,2.46,1.22,50.87,50.87,0,0,1,2.31-14.81A42.54,42.54,0,0,1,396,53.1V49.72c-4.6,8.86-7.19,19.51-8.38,25.42m2.46-67.8a19.17,19.17,0,0,1-2.46,1.22c1.19,5.91,3.78,16.55,8.38,25.42V30.59a42.33,42.33,0,0,1-3.61-8.44A51.06,51.06,0,0,1,390.1,7.34m-4,.4c-.15-.87-.29-1.61-.38-2.18a18.27,18.27,0,0,1-7.55,3.94,37.55,37.55,0,0,0,7.94-1.76m6.51,69.39a123.92,123.92,0,0,1,3.51-14.52,71.08,71.08,0,0,1,8.2-18.23l0,0,.08-.11a4.81,4.81,0,0,0-.1-4.95c-7.32-10.9-10.66-26.8-11.72-32.74-2.61,9.71,2.32,20,3.88,22.82l.53-1.24v7.74a40.46,40.46,0,0,0,3.78,5.56l.34.41-.34.41a40.6,40.6,0,0,0-3.78,5.56v7.74l-.53-1.25C395,57.18,390,67.43,392.65,77.14"/></svg>