<svg id="Layer_1" data-name="Layer 1" xmlns="http://www.w3.org/2000/svg" viewBox="0 0 300 220"><defs><style>.cls-1{fill:#231f20;}</style></defs><title>flaws</title><path class="cls-1" d="M4.85,4.43C5.5,6.6,7.24,11,10.55,12c.29,1.21.81,2.07,1.43,2.07s1.18-.91,1.47-2.2c2.51-.76,5.29-3.19,8.34-7.43H277.69c3,4.24,5.83,6.67,8.34,7.43.28,1.29.82,2.2,1.47,2.2s1.14-.85,1.43-2.07c3.31-1,5-5.4,5.7-7.56h3.29V44.25c-1.77,26.24-2.67,49.64-2.67,69.59v69.73c-3.35,13.13-9.59,32-17.85,32H22.08c-8.25,0-14.5-18.88-17.85-32V113.84c0-19.95-.9-43.35-2.67-69.59V4.43M297.92,171.6c-.2,1-.79,4.13-1.76,8.26v-66c0-16.15.59-34.59,1.76-55Zm-8,44h-5.17c6.36-7.8,10.88-24.16,13.18-34.2v17.49a25.18,25.18,0,0,0-8,16.71m-280.34,0a25.17,25.17,0,0,0-8-16.71V181.37c2.3,10,6.82,26.4,13.18,34.2ZM3.32,179.85c-1-4.12-1.57-7.21-1.76-8.25V58.84c1.17,20.41,1.76,38.85,1.76,55ZM.38,202.55c2.08,1.57,7.46,7.36,7.46,15.24V220h283.8v-2.21c0-7.86,5.39-13.66,7.46-15.24l.64-.48V0L293.6,0l-.26,1.14c-.05.25-1.28,5.33-4.52,6.4-.31-1-.77-1.67-1.32-1.67s-1,.63-1.29,1.57c-2.3-.72-4.91-3-7.81-7.14l-.21-.3H21.29l-.21.3c-2.9,4.1-5.51,6.43-7.81,7.14C13,6.51,12.51,5.88,12,5.88s-1,.68-1.32,1.67C7.41,6.49,6.19,1.4,6.14,1.17L5.88,0H-.26V202.07Z"/></svg>