<svg id="Layer_1" data-name="Layer 1" xmlns="http://www.w3.org/2000/svg" viewBox="0 0 100 100"><defs><style>.cls-1{fill:#231f20;}</style></defs><title>Artboard 9</title><path class="cls-1" d="M14.14,51.82a141.3,141.3,0,0,0-.86-18.15,13.8,13.8,0,0,1-1.25,1c.88,3.19,1.58,11.58,2.11,17.13m0,34.06h7a18.36,18.36,0,0,0-6.8-2.71c-.09,1.14-.17,2.06-.24,2.71m.34-4.09a12.34,12.34,0,0,1,1.77.34c-.54-.53-1.11-1.14-1.67-1.79,0,.51-.07,1-.1,1.46M29.64,92.26a16.79,16.79,0,0,0-5,.59C27.38,94,30.79,95,31.82,94.41l.07,0c-.41-.4-1.2-1.16-2.26-2.1M49.75,94c6.83,0,12.81-2.5,16.17-6.22.27-.3.53-.61.77-.92l.07-.1c.21-.29.42-.59.6-.9a9.63,9.63,0,0,0,1.43-5c0-7.23-8.54-13.11-19-13.11s-19,5.88-19,13.11a9.63,9.63,0,0,0,1.43,5,10.82,10.82,0,0,0,.61.9l.07.1c.24.31.49.62.76.92C36.94,91.54,42.92,94,49.75,94m17.85.33.07,0c1,.58,4.45-.44,7.17-1.56a16.79,16.79,0,0,0-5-.59c-1.06.94-1.85,1.7-2.26,2.1m10.72-8.48h7c-.06-.65-.15-1.57-.24-2.71a18.35,18.35,0,0,0-6.8,2.71m4.92-3.75A12.3,12.3,0,0,1,85,81.79c0-.46-.07-.95-.1-1.46-.56.65-1.12,1.26-1.67,1.79m2.11-30.31c.53-5.56,1.23-13.94,2.11-17.13a13.58,13.58,0,0,1-1.25-1,141,141,0,0,0-.86,18.15M12.28,81.6h.27c.08-1.09.16-2.33.23-3.69a13,13,0,0,1-2.17-5.77,9.21,9.21,0,0,1,2.54-7.1c0-.38,0-.76,0-1.14,0,0-1.35-25.27-2.6-29.31l-.16-.52.46-.29A12.35,12.35,0,0,0,13,32a6.15,6.15,0,0,0,1.53-2.2,5,5,0,0,0,.41-3.3c0-.11-.57-1.33-1.09-2.91l-.25,2.8c.26.77.49,1.6.7,2.44a5.16,5.16,0,0,1-1.53,2,31.93,31.93,0,0,0-1-4l-.07-.19,1.21-13.52a31.38,31.38,0,0,0,1.36,6.41A36.05,36.05,0,0,0,16.27,26a7,7,0,0,1-1.32,5.77c1.62,9.09,0,41.53-.16,45.3A15.46,15.46,0,0,1,13,73.7c.08-2,.13-4.09.16-6.29A7.43,7.43,0,0,0,12,72a11.72,11.72,0,0,0,2.06,5.31l.15.22.44.63.05.07h0a28.91,28.91,0,0,0,5.64,5.56,38,38,0,0,1,3.42,2.07h0l.25.18c.78.53,1.53,1.07,2.25,1.62l.18.13h0c1.39,1.06,2.66,2.12,3.71,3,1.36,0,2.7.11,3.88.22a16.24,16.24,0,0,1-3.13-3.27H27.58l-2.44-1.93h2.27a16.36,16.36,0,0,1-.86-4.08,4.24,4.24,0,0,1-5.11,1.76c.59.17,3,.52,5.15-4v0a8.09,8.09,0,0,1,2.47-5.22,13.28,13.28,0,0,0-.94,10.1,1.7,1.7,0,0,0,1.31.63,11.22,11.22,0,0,1-.82-4.16c0-8.39,9.49-15.21,21.14-15.21s21.14,6.82,21.14,15.21a11.24,11.24,0,0,1-.82,4.16,1.69,1.69,0,0,0,1.31-.63,13.27,13.27,0,0,0-.94-10.1,8.09,8.09,0,0,1,2.47,5.22v0c2.16,4.53,4.56,4.18,5.15,4A4.24,4.24,0,0,1,73,81.8a16.23,16.23,0,0,1-.86,4.08h2.27l-2.44,1.93H68.57a16.32,16.32,0,0,1-3.13,3.27c1.18-.11,2.52-.21,3.88-.22,1-.92,2.32-2,3.71-3h0l.17-.13c.73-.55,1.47-1.1,2.25-1.62l.25-.18h0a37.81,37.81,0,0,1,3.42-2.07,29,29,0,0,0,5.64-5.56h0l.05-.07.44-.63.15-.22A11.72,11.72,0,0,0,87.48,72a7.43,7.43,0,0,0-1.12-4.61c0,2.2.08,4.32.16,6.29a15.46,15.46,0,0,1-1.8,3.41c-.2-3.77-1.78-36.21-.16-45.3A7,7,0,0,1,83.23,26a36.44,36.44,0,0,0,2.05-6.54,31.23,31.23,0,0,0,1.36-6.41L87.86,26.6l-.07.19a31.93,31.93,0,0,0-1,4,5.18,5.18,0,0,1-1.54-2c.21-.84.43-1.67.7-2.44l-.25-2.8c-.53,1.58-1,2.8-1.09,2.91a5,5,0,0,0,.41,3.3A6.17,6.17,0,0,0,86.49,32a12.33,12.33,0,0,0,2.16,1.83l.46.29-.16.52c-1.24,4-2.6,29.31-2.6,29.31,0,.38,0,.77,0,1.14a9.21,9.21,0,0,1,2.53,7.1,13,13,0,0,1-2.16,5.77c.07,1.36.16,2.59.23,3.69h.27c1.46-.12,2.74.69,2.12,1.71a2.42,2.42,0,0,1-1.68,1.13,2.5,2.5,0,0,0,.73-.84c.16-.29,0-.43-.13-.5l-.37-.05h0c-.27,0-.55,0-.82,0,.17,2.27.31,3.64.32,3.71l.11,1.07H75.4c-1.44,1-2.79,2.1-4,3.09A11.67,11.67,0,0,1,78.35,93L75.65,94h0a29,29,0,0,1-5.25,1.71h0l-.33.06-.24,0c-9.48,1.64-10.47.74-10.47.74A9.9,9.9,0,0,0,66,93.93l.23-.24c.1-.09.61-.61,1.42-1.37l-1.77.12h0l-.43,0a8.81,8.81,0,0,0-1.16.22c-.27.07-.56.16-.86.26l-.14.05a7.15,7.15,0,0,0-.93.43l-.11.07a5.8,5.8,0,0,0-.75.53l-.22.19a4.59,4.59,0,0,0-.73.84L52.86,96l.06,0a26.23,26.23,0,0,1-6.35,0l.06,0-7.74-.88a4.59,4.59,0,0,0-.74-.85L37.93,94a6.5,6.5,0,0,0-.77-.54l-.09-.05a7.5,7.5,0,0,0-.93-.43L36,93c-.29-.1-.59-.2-.85-.26A9.89,9.89,0,0,0,34,92.49l-.43,0h0l-1.77-.12c.82.77,1.33,1.28,1.42,1.37l.23.24a9.9,9.9,0,0,0,6.65,2.66s-1,.9-10.46-.74l-.24,0-.33-.06h0A28.87,28.87,0,0,1,23.85,94h0L21.15,93a11.67,11.67,0,0,1,6.91-2.08c-1.17-1-2.52-2.06-4-3.09H12l.11-1.07c0-.07.15-1.45.33-3.71-.27,0-.55,0-.82,0h0l-.37.05c-.17.07-.3.2-.14.5a2.5,2.5,0,0,0,.73.84,2.41,2.41,0,0,1-1.68-1.13c-.62-1,.66-1.83,2.12-1.71M14.44,17A34.27,34.27,0,0,1,13,9.78l0-.42.62-.19c1.45-.45,5.56-2.25,5.56-4.57v-1h61v1c0,2.32,4.11,4.12,5.56,4.57l.62.19,0,.42A34.27,34.27,0,0,1,85.06,17l-.43-6.2c-1.59-.58-5.46-2.29-6.18-5.24H21c-.72,2.95-4.59,4.65-6.18,5.24Z"/></svg>