<svg id="Layer_1" data-name="Layer 1" xmlns="http://www.w3.org/2000/svg" viewBox="0 0 300 220"><defs><style>.cls-1{fill:#231f20;}</style></defs><title>pers</title><path class="cls-1" d="M294.89,216.32c-.65-1.69-2.39-5.13-5.69-5.88-.29-.94-.81-1.61-1.43-1.61s-1.18.71-1.47,1.71c-2.5.59-5.29,2.48-8.33,5.77H22.29c-3-3.29-5.82-5.18-8.33-5.77-.28-1-.82-1.71-1.47-1.71s-1.14.66-1.43,1.61c-3.31.74-5,4.19-5.69,5.88H2.08V185.38C3.85,165,4.75,146.8,4.75,131.31V28.3C8.09,18.1,14.33,3.44,22.58,3.44h255.1c8.24,0,14.49,14.67,17.83,24.87v103c0,15.5.9,33.68,2.67,54.07v30.94M2.08,37.61c.2-.81.79-3.21,1.76-6.42V131.31c0,12.55-.59,26.87-1.76,42.73Zm8-34.17h5.16C8.89,9.51,4.38,22.21,2.08,30V16.43c1.88-1.3,7.26-5.63,8-13m280.09,0c.75,7.36,6.12,11.68,8,13V30c-2.3-7.81-6.81-20.51-13.17-26.58Zm6.24,27.76c1,3.2,1.56,5.6,1.76,6.41V174c-1.17-15.86-1.76-30.18-1.76-42.73Zm2.94-17.64c-2.07-1.22-7.45-5.72-7.45-11.84V0H8.36V1.72C8.36,7.83,3,12.34.9,13.56l-.64.37V219.76H6.4l.26-.88c.05-.19,1.28-4.14,4.51-5,.31.77.77,1.3,1.32,1.3s1-.49,1.29-1.22c2.3.56,4.91,2.36,7.81,5.55l.21.23H278.46l.21-.23c2.89-3.19,5.5-5,7.81-5.55.31.73.76,1.22,1.29,1.22s1-.53,1.32-1.3c3.24.82,4.46,4.77,4.51,5l.26.91H300V13.94Z"/></svg>