<svg id="Layer_1" data-name="Layer 1" xmlns="http://www.w3.org/2000/svg" viewBox="0 0 229.64 223"><defs><style>.cls-1{fill:#231f20;}</style></defs><title>saves</title><path class="cls-1" d="M226,178.74A180,180,0,0,1,224.79,152c.78,9.54,1.87,19.56,3.27,25a19.54,19.54,0,0,0-2,1.81m-.49,11-.41,5c-.8-2.7-1.64-4.85-1.69-5a9.09,9.09,0,0,1,.7-5.76,57.17,57.17,0,0,0,1.41,5.69M214.9,220h-7.27c13.61-6,16.09-17.33,16.3-23.86.31,1.1.6,2.25.81,3.35l-1,12.35c-2.27.91-7.8,3.56-8.83,8.16M6.1,211.84l-1-12.35c.2-1.06.48-2.17.78-3.24a28.41,28.41,0,0,0,1.27,7.64c1.65,5.26,5.63,11.91,15.07,16.1H14.92c-1-4.59-6.55-7.25-8.83-8.16m.34-22.12c-.07.18-.93,2.38-1.74,5.1l-.41-5A56.92,56.92,0,0,0,5.71,184a8.87,8.87,0,0,1,.73,5.68m-4.67-12.8c1.4-5.39,2.49-15.41,3.27-25A180.16,180.16,0,0,1,3.8,178.73a19.35,19.35,0,0,0-2-1.81m2-132.66A180,180,0,0,1,5,71c-.78-9.54-1.87-19.56-3.27-25a19.14,19.14,0,0,0,2-1.81m.49-11,.41-5c.8,2.7,1.64,4.86,1.7,5a9.1,9.1,0,0,1-.7,5.76,57,57,0,0,0-1.41-5.69M14.92,3h7.27C8.58,9,6.1,20.33,5.89,26.86c-.31-1.1-.6-2.25-.81-3.35l1-12.35C8.37,10.25,13.9,7.59,14.92,3m208.8,8.16,1,12.35c-.2,1.06-.48,2.17-.78,3.24a28.43,28.43,0,0,0-1.27-7.65C221,13.84,217.06,7.18,207.62,3h7.28c1,4.59,6.55,7.25,8.83,8.16m-.34,22.12c.07-.18.93-2.38,1.74-5.1l.41,5A57.62,57.62,0,0,0,224.11,39a8.88,8.88,0,0,1-.73-5.68m4.67,12.8c-1.4,5.39-2.49,15.41-3.27,25A180.19,180.19,0,0,1,226,44.27a20,20,0,0,0,2,1.81M222,190.37s.36.94.83,2.3a27.93,27.93,0,0,1-1.09,10.89c-2.41,7.69-8.31,13.32-17.08,16.45H25.09C6.24,213.31,6.45,197.45,7,192.72c.48-1.43.87-2.41.89-2.48a11.32,11.32,0,0,0-1.71-8.56c2.76-16.52,1.36-37.56,1.29-38.51V80c.07-1,1.48-22.12-1.29-38.65a11.49,11.49,0,0,0,1.68-8.67s-.37-.94-.83-2.3A27.93,27.93,0,0,1,8.07,19.45C10.49,11.76,16.38,6.13,25.16,3H204.73c18.85,6.69,18.64,22.55,18.12,27.28-.48,1.43-.87,2.41-.89,2.48a11.31,11.31,0,0,0,1.71,8.56c-2.76,16.52-1.36,37.56-1.29,38.51V143c-.07,1-1.48,22.12,1.29,38.65a11.49,11.49,0,0,0-1.68,8.67m3.13-55.53V96.94c.63-11.2,2.16-42.62,4.51-51l.17-.6-.49-.33a18,18,0,0,1-3-2.76,59,59,0,0,1,1.91-8.39l.1-.3-2-24.67-.88-.3c-2.06-.7-7.94-3.5-7.94-7.12V0H12.34V1.5c0,3.62-5.73,6.37-7.94,7.12l-.88.3-2,24.66.1.3A58.9,58.9,0,0,1,3.5,42.26,17.63,17.63,0,0,1,.49,45L0,45.37l.17.6C2.52,54.31,4,85.68,4.68,96.89v37.91C4.05,146,2.53,168.68.17,177l-.17.6.49.33a17.66,17.66,0,0,1,3,2.75,58.83,58.83,0,0,1-1.91,8.39l-.1.31,2,24.66.88.3c2.21.75,7.94,3.5,7.94,7.12V223H217.49v-1.5c0-3.62,5.73-6.37,7.94-7.12l.88-.3,2-24.66-.1-.31a59.11,59.11,0,0,1-1.91-8.37,17.46,17.46,0,0,1,3-2.77l.49-.34-.17-.6c-2.35-8.34-3.88-31-4.51-42.19"/></svg>