<svg id="Layer_1" data-name="Layer 1" xmlns="http://www.w3.org/2000/svg" viewBox="0 0 231.31 648"><defs><style>.cls-1{fill:#231f20;}</style></defs><title>skills</title><path class="cls-1" d="M227.5,599.05a219,219,0,0,1-1.24-29.6c.79,10.55,1.88,21.63,3.28,27.59a20.37,20.37,0,0,0-2,2M227,611.27l-.42,5.57c-.8-3-1.65-5.36-1.7-5.49a11,11,0,0,1,.7-6.37c.4,2.21.87,4.33,1.42,6.29m-10.69,33.41H209c13.67-6.66,16.16-19.16,16.37-26.38.31,1.22.6,2.49.81,3.7l-1,13.66c-2.28,1-7.84,3.94-8.87,9m-209.76-9L5.54,622c.2-1.17.48-2.4.78-3.58a34.33,34.33,0,0,0,1.27,8.45,27.85,27.85,0,0,0,15.14,17.8H15.43c-1-5.08-6.58-8-8.87-9M6.9,611.2c-.07.2-.93,2.63-1.74,5.64l-.42-5.57c.56-2,1-4.12,1.43-6.35a10.7,10.7,0,0,1,.73,6.28M2.21,597c1.4-6,2.5-17,3.28-27.6A219.15,219.15,0,0,1,4.25,599a20.15,20.15,0,0,0-2-2m2-548.1a219,219,0,0,1,1.24,29.6C4.7,68,3.61,56.92,2.21,51a20,20,0,0,0,2-2m.49-12.22.42-5.57c.8,3,1.65,5.37,1.7,5.5A11,11,0,0,1,6.16,43c-.4-2.21-.87-4.33-1.42-6.29M15.43,3.32h7.3C9.06,10,6.56,22.48,6.36,29.7,6,28.49,5.75,27.21,5.54,26l1-13.66c2.28-1,7.84-3.94,8.87-9m209.76,9,1,13.66c-.2,1.18-.48,2.4-.78,3.58a34.36,34.36,0,0,0-1.27-8.46A27.86,27.86,0,0,0,209,3.32h7.31c1,5.08,6.58,8,8.87,9m-.34,24.46c.07-.2.93-2.63,1.74-5.64l.42,5.57c-.56,2-1,4.12-1.43,6.35a10.73,10.73,0,0,1-.73-6.28M229.54,51c-1.4,6-2.5,17-3.28,27.6A219.19,219.19,0,0,1,227.5,49a20.86,20.86,0,0,0,2,2m-6.08,561s.37,1,.83,2.54a33.87,33.87,0,0,1-1.09,12c-2.42,8.5-8.34,14.73-17.16,18.19H25.64c-18.94-7.4-18.73-24.93-18.21-30.17.49-1.58.87-2.67.89-2.75a13.54,13.54,0,0,0-1.72-9.47C9.38,584,8,560.76,7.9,559.71V88.42C8,87.26,9.39,64,6.6,45.67a13.75,13.75,0,0,0,1.69-9.59s-.37-1-.84-2.54a33.88,33.88,0,0,1,1.09-12C11,13,16.89,6.78,25.71,3.32h180.4c18.94,7.4,18.73,24.93,18.21,30.17-.49,1.58-.87,2.67-.89,2.75a13.52,13.52,0,0,0,1.72,9.47c-2.78,18.27-1.36,41.54-1.29,42.59V559.59c-.07,1.15-1.49,24.46,1.29,42.74a13.76,13.76,0,0,0-1.68,9.58m3.15-61.41v-453c.64-12.38,2.17-37.48,4.54-46.71l.17-.67-.49-.37a18.73,18.73,0,0,1-3-3,71,71,0,0,1,1.92-9.27l.1-.34-2-27.28-.88-.33c-2.07-.77-8-3.87-8-7.88V0H12.83V1.66c0,4-5.76,7-8,7.88L4,9.87l-2,27.27.1.34a70.75,70.75,0,0,1,1.92,9.25,18.42,18.42,0,0,1-3,3.07l-.49.37.17.67C3,60.06,4.5,85.09,5.14,97.49v453C4.51,562.84,3,587.94.61,597.17l-.17.67.49.37a18.42,18.42,0,0,1,3,3A70.67,70.67,0,0,1,2,610.52l-.1.34,2,27.27.88.33c2.22.83,8,3.87,8,7.88V648H218.92v-1.66c0-4,5.76-7,8-7.88l.88-.33,2-27.27-.1-.34a71,71,0,0,1-1.92-9.25,18.23,18.23,0,0,1,3-3.07l.49-.37-.17-.67c-2.37-9.22-3.9-34.26-4.53-46.66"/></svg>