<svg id="Layer_1" data-name="Layer 1" xmlns="http://www.w3.org/2000/svg" viewBox="0 0 100 100"><defs><style>.cls-1{fill:#231f20;}</style></defs><title>Artboard 10</title><path class="cls-1" d="M86.59,92H81.73a20.37,20.37,0,0,0,9.1-7.64h.08v-.13a28.87,28.87,0,0,0,3.23-6.74v7m-88.83,0v-7a28.79,28.79,0,0,0,3.23,6.74v.13h.08A20.37,20.37,0,0,0,17.72,92H12.86Zm7.55-76h4.86a20.36,20.36,0,0,0-9.1,7.64H8.54v.13A28.8,28.8,0,0,0,5.31,23V16ZM90.91,18.3c.3.53.62,1,.89,1.61A32.11,32.11,0,0,1,94.14,27V73.42a31.19,31.19,0,0,1-3.23,8.75ZM5.31,27.08a31.16,31.16,0,0,1,3.23-8.75V82.2c-.3-.53-.62-1-.89-1.61a32.06,32.06,0,0,1-2.34-7.07ZM78.25,92H21.15A18.92,18.92,0,0,1,9.88,84.33V16.22A19.22,19.22,0,0,1,21.2,8.49H78.3a18.92,18.92,0,0,1,11.27,7.68V84.29A19.22,19.22,0,0,1,78.25,92M94.14,16v7a28.88,28.88,0,0,0-3.23-6.74v-.13h-.08a20.36,20.36,0,0,0-9.1-7.64h4.86ZM87.61,6H11.84l-9,9V85.48l9,9H87.61l9-9V15Z"/></svg>