<svg id="Layer_1" data-name="Layer 1" xmlns="http://www.w3.org/2000/svg" viewBox="0 0 2008 2008"><title>d20-red</title><path d="M939.28,396.38c9.77.09,12.45,6.59,6,18-16.23,28.56-32.71,57-49.14,85.43Q677,879.24,457.78,1258.67c-.76,1.31-1.29,2.87-2.34,3.88-3.75,3.6-7.68,7-11.54,10.48-3.42-3.84-8.12-7.12-10.05-11.6-14.79-34.32-29.07-68.86-43.45-103.35Q266.15,860.23,141.92,562.36c-16.14-38.69.45-69.31,42.26-74.68,87.25-11.21,174.64-21.26,262-31.79l314.7-37.95C820.08,410.8,879.31,403.63,939.28,396.38Z"/><path d="M1058.15,397c105.81,13.39,207.62,26.29,309.43,39.15q174.53,22.05,349.06,44.07c32.09,4.05,64.25,7.69,96.26,12.35,35.35,5.15,53.3,36.91,39.51,69.93q-146,349.49-292.52,698.77c-2.26,5.4-7.5,9.55-11.35,14.28-4.33-4.55-9.79-8.45-12.84-13.73q-191.37-331.55-382.35-663.33c-34.56-60-69.26-119.9-103.53-180.05-3-5.18-5.3-12.51-3.84-17.68C1046.78,397.91,1056.17,397.52,1058.15,397Z"/><path d="M997.29,1308.69H523.65c-4,0-8.1.14-12.14,0-18.29-.79-23.78-10-14.79-25.74,24.31-42.57,48.92-85,73.41-127.43l408.34-707.9c2-3.5,3.84-7.15,6.14-10.46,7.58-10.9,16.51-10.84,23.68.68,7.74,12.43,14.73,25.33,22.05,38q230.38,399.24,460.76,798.48c2.53,4.38,5.32,8.66,7.34,13.27,5.29,12.09.76,19.74-12.33,21-4.52.43-9.1.14-13.66.14Zm206-287.93h0c0-39.41,1-78.85-.25-118.21-1.55-49.14-30.32-80.37-78.11-87.52-64.82-9.7-110.06,27.18-112.94,92.6-.87,19.68-.45,39.41-.45,59.12,0,55.09-1.12,110.22.53,165.26,1.79,59.93,37.54,92.91,96.8,92.66,57.67-.24,92.21-33.13,94.23-91.76C1204.35,1095.57,1203.31,1058.15,1203.31,1020.76Zm-355-67.56c0-19-1.29-36.26.34-53.29,1.92-20.1,12.91-28.61,32.37-28.49,18.82.12,27.93,8.13,30.61,28.31,5.27,39.67-5.39,75.32-29.93,106.43-16.59,21-34.41,41.1-52.33,61-39.47,43.86-44.93,96.24-39.7,152.24H971v-56c-35.89,0-70.76-.68-105.59.32-14.48.42-17.89-7.08-14.22-17.39,5.17-14.51,11.57-29.26,20.66-41.53,14.1-19,30.93-36,46.58-53.93,33.1-37.84,55.77-79.86,58.19-131.7,2.64-56.61-24.36-95.26-75.43-104-45.93-7.88-86.89,11.32-102.9,48.41-12.43,28.78-9.85,59-9.49,89.61Z"/><path d="M996.34,1351.7H1474.5c3.54,0,7.25-.67,10.59.16,5,1.25,12.34,2.38,13.88,5.75,1.64,3.59-1.08,10.66-4,14.61-23.6,31.6-47.68,62.85-71.66,94.17q-191.83,250.6-383.66,501.2c-25.92,33.88-60.57,33.94-86.7-.18q-226.46-295.74-452.65-591.68c-3.89-5.09-4.93-12.35-7.31-18.6,6.38-1.81,12.77-5.18,19.15-5.19Q754.22,1351.49,996.34,1351.7Z"/><path d="M976.59,187.89c0,48.57-.35,97.15.23,145.71.16,13.16-3.77,18.58-17.57,20.16-98.42,11.32-196.75,23.45-295.1,35.37Q506.83,408.2,349.53,427.32c-21.07,2.55-42.12,5.6-63.28,7-5.75.38-11.84-4.44-17.78-6.87,3.54-4.37,6.19-10.28,10.74-12.9Q610.31,224,941.77,34c29.55-16.94,34.82-13.56,34.82,20.31Q976.59,121.11,976.59,187.89Z"/><path d="M1018.06,187.1q0-72.86,0-145.73c0-17.27,4.08-20.48,19.91-13.86,11.09,4.64,21.32,11.4,31.82,17.43q317.55,182.28,635,364.75c7.62,4.38,21.32,6.56,16.88,19.41-4.5,13-17,5.43-25.25,4.47q-238-28-475.81-57.12c-62.22-7.53-124.39-15.58-186.67-22.64-13.19-1.49-16.38-6.82-16.19-19.47C1018.5,285.27,1018.06,236.18,1018.06,187.1Z"/><path d="M126.28,1063.12q0-184.44,0-368.88c0-4-.94-8.42.27-12.06,1.56-4.7,4.86-8.83,7.41-13.2,3.89,3.26,9.61,5.74,11.39,9.91,17.69,41.32,34.71,82.93,51.94,124.44q104.25,251.19,208.75,502.27c5.52,13.22,4.33,20.19-8.93,27.68-81.39,46-162.26,92.91-243.32,139.48-17.84,10.25-22.59,8.17-25.55-12.06a200,200,0,0,1-1.9-28.72Q126.18,1247.56,126.28,1063.12Z"/><path d="M1866.33,1063.25q0,183.57-.1,367.15a193.05,193.05,0,0,1-2.36,30.18c-2.81,17.51-7.94,19.82-23.24,11.16q-104.83-59.35-209.58-118.82c-12.3-7-24.34-14.48-37-20.67-11.45-5.59-13.5-12.18-8.52-24.13q89.06-213.89,177.33-428.1,40.23-97.24,80.52-194.45c1.74-4.2,2.85-8.93,5.6-12.34,2.14-2.65,6.73-5.38,9.56-4.81s6.29,4.8,7.18,8.06c1.29,4.73.62,10,.62,15.07Q1866.35,877.4,1866.33,1063.25Z"/><path d="M1143.42,1926.35c-2.69-1.6-6.75-2.65-7.27-4.62-.88-3.38-.79-8.2,1.09-10.89,8.36-12,17.46-23.56,26.37-35.21q191.13-250.2,382.29-500.39c13.31-17.42,15.36-17.9,34.78-6.9q119.41,67.59,238.74,135.31c18.72,10.63,19.77,16.84,2.33,29.18-17.69,12.51-36.74,23.14-55.54,34q-303.81,175.77-607.75,351.33C1153.68,1920.93,1148.76,1923.45,1143.42,1926.35Z"/><path d="M860.51,1919.69c-5.44,2.22-9.55,5.37-13.39,5.07-4.15-.32-8.12-3.73-12.06-6Q516.52,1735.1,198,1551.32c-10.86-6.27-21.73-12.92-31.25-21-8.89-7.52-7.62-15.42,3.24-21.55q126.74-71.59,253.18-143.71c13.11-7.52,17,1.72,22.61,9q135.47,177.23,270.82,354.55,66.79,87.43,133.61,174.84C853.55,1907.82,856.11,1912.7,860.51,1919.69Z"/><path d="M1075.26,1018.09c0-36.93-.21-73.86.08-110.79.2-25.24,12.64-37.11,36.2-35.9,15.51.8,24,9.56,27.21,23.84,1.52,6.83,1.74,14.06,1.75,21.1q.18,102.44,0,204.88a104.15,104.15,0,0,1-1.84,21.1c-3.13,14.91-13.7,23.06-29.27,23.62-16,.58-27-6.29-31.37-20.75a69.1,69.1,0,0,1-2.63-19.36C1075.13,1089.92,1075.26,1054,1075.26,1018.09Z"/></svg>