<?xml version="1.0" encoding="utf-8"?>
<!-- Generator: Adobe Illustrator 21.1.0, SVG Export Plug-In . SVG Version: 6.00 Build 0)  -->
<svg version="1.1" id="Layer_1" xmlns="http://www.w3.org/2000/svg" xmlns:xlink="http://www.w3.org/1999/xlink" x="0px" y="0px"
	 viewBox="0 0 2008 2008" style="enable-background:new 0 0 2008 2008;" xml:space="preserve">
<style type="text/css">
	.st0{fill:none;stroke:#F2F2F2;stroke-width:10;stroke-miterlimit:10;}
</style>
<title>d20-red</title>
<g>
	<path class="st0" d="M390.4,1158.1c14.4,34.5,28.7,69,43.5,103.3c1.9,4.5,6.6,7.8,10,11.6c3.9-3.5,7.8-6.9,11.5-10.5
		c1-1,1.6-2.6,2.3-3.9c146.1-253,292.3-505.9,438.4-758.9c16.4-28.4,32.9-56.9,49.1-85.4c6.5-11.4,3.8-17.9-6-18
		c-60,7.3-119.2,14.4-178.4,21.6l-314.7,37.9c-87.4,10.5-174.8,20.6-262,31.8c-41.8,5.4-58.4,36-42.3,74.7
		C224.7,760.9,307.6,959.5,390.4,1158.1z"/>
	<path class="st0" d="M1367.6,436.1c-101.8-12.9-203.6-25.8-309.4-39.1c-2,0.5-11.4,0.9-12.2,3.8c-1.5,5.2,0.8,12.5,3.8,17.7
		c34.3,60.2,69,120,103.5,180c127.3,221.2,254.8,442.3,382.3,663.3c3,5.3,8.5,9.2,12.8,13.7c3.8-4.7,9.1-8.9,11.3-14.3
		c97.7-232.9,195.2-465.8,292.5-698.8c13.8-33-4.2-64.8-39.5-69.9c-32-4.7-64.2-8.3-96.3-12.4
		C1600.3,465.5,1483.9,450.8,1367.6,436.1z"/>
	<path class="st0" d="M496.7,1282.9c-9,15.7-3.5,24.9,14.8,25.7c4,0.1,8.1,0,12.1,0h473.6l475.2,0c4.6,0,9.1,0.3,13.7-0.1
		c13.1-1.3,17.6-8.9,12.3-21c-2-4.6-4.8-8.9-7.3-13.3c-153.6-266.2-307.2-532.3-460.8-798.5c-7.3-12.7-14.3-25.6-22-38
		c-7.2-11.5-16.1-11.6-23.7-0.7c-2.3,3.3-4.1,7-6.1,10.5l-408.3,707.9C545.6,1197.9,521,1240.4,496.7,1282.9z"/>
	<path class="st0" d="M1495,1372.2c2.9-3.9,5.6-11,4-14.6c-1.5-3.4-8.9-4.5-13.9-5.8c-3.3-0.8-7-0.2-10.6-0.2H996.3
		c-161.4-0.1-322.8-0.1-484.2,0.2c-6.4,0-12.8,3.4-19.1,5.2c2.4,6.3,3.4,13.5,7.3,18.6C651.1,1573,802,1770.3,952.9,1967.4
		c26.1,34.1,60.8,34.1,86.7,0.2c127.9-167.1,255.8-334.1,383.7-501.2C1447.3,1435.1,1471.4,1403.8,1495,1372.2z"/>
	<path class="st0" d="M286.3,434.3c21.2-1.4,42.2-4.5,63.3-7c104.9-12.7,209.7-25.5,314.6-38.2c98.3-11.9,196.7-24,295.1-35.4
		c13.8-1.6,17.7-7,17.6-20.2c-0.6-48.6-0.2-97.1-0.2-145.7c0-44.5,0-89,0-133.6c0-33.9-5.3-37.3-34.8-20.3
		c-221,126.7-441.8,253.5-662.6,380.6c-4.5,2.6-7.2,8.5-10.7,12.9C274.4,429.9,280.5,434.7,286.3,434.3z"/>
	<path class="st0" d="M1033.9,353.8c62.3,7.1,124.5,15.1,186.7,22.6c158.5,19.4,317.1,38.5,475.8,57.1c8.3,1,20.8,8.5,25.3-4.5
		c4.4-12.8-9.3-15-16.9-19.4c-211.6-121.6-423.3-243.2-635-364.8c-10.5-6-20.7-12.8-31.8-17.4c-15.8-6.6-19.9-3.4-19.9,13.9
		c0,48.6,0,97.2,0,145.7c0,49.1,0.4,98.2-0.3,147.2C1017.6,347,1020.7,352.3,1033.9,353.8z"/>
	<path class="st0" d="M406,1305.6c-69.7-167.4-139.3-334.8-208.8-502.3c-17.2-41.5-34.3-83.1-51.9-124.4c-1.8-4.2-7.5-6.6-11.4-9.9
		c-2.6,4.4-5.9,8.5-7.4,13.2c-1.2,3.6-0.3,8.1-0.3,12.1c0,123,0,245.9,0,368.9c-0.1,123,0,245.9,0.1,368.9
		c-0.1,9.6,0.6,19.2,1.9,28.7c3,20.2,7.7,22.3,25.5,12.1c81.1-46.6,161.9-93.5,243.3-139.5C410.4,1325.8,411.6,1318.8,406,1305.6z"
		/>
	<path class="st0" d="M1865.7,676.5c-0.9-3.3-4.3-7.5-7.2-8.1c-2.8-0.6-7.4,2.2-9.6,4.8c-2.8,3.4-3.9,8.1-5.6,12.3
		c-26.9,64.8-53.7,129.6-80.5,194.5c-58.8,142.8-118,285.5-177.3,428.1c-5,11.9-2.9,18.5,8.5,24.1c12.7,6.2,24.7,13.7,37,20.7
		c69.8,39.6,139.7,79.3,209.6,118.8c15.3,8.7,20.4,6.3,23.2-11.2c1.6-10,2.4-20.1,2.4-30.2c0.1-122.4,0.1-244.8,0.1-367.2
		c0-123.9,0-247.8,0-371.7C1866.3,686.5,1867,681.2,1865.7,676.5z"/>
	<path class="st0" d="M1819.4,1503.6c-79.6-45.1-159.1-90.3-238.7-135.3c-19.4-11-21.5-10.5-34.8,6.9
		c-127.4,166.8-254.9,333.6-382.3,500.4c-8.9,11.6-18,23.2-26.4,35.2c-1.9,2.7-2,7.5-1.1,10.9c0.5,2,4.6,3,7.3,4.6
		c5.3-2.9,10.3-5.4,15-8.2c202.6-117,405.2-234.2,607.8-351.3c18.8-10.9,37.9-21.5,55.5-34
		C1839.2,1520.5,1838.1,1514.3,1819.4,1503.6z"/>
	<path class="st0" d="M716.6,1728.6c-90.2-118.2-180.5-236.4-270.8-354.5c-5.6-7.3-9.5-16.5-22.6-9c-84.3,48.1-168.7,96-253.2,143.7
		c-10.9,6.1-12.1,14-3.2,21.6c9.5,8.1,20.4,14.7,31.3,21c212.3,122.5,424.7,245,637.1,367.4c3.9,2.3,7.9,5.7,12.1,6
		c3.8,0.3,8-2.8,13.4-5.1c-4.4-7-7-11.9-10.3-16.2C805.7,1845.2,761.1,1786.9,716.6,1728.6z"/>
</g>
</svg>
