<svg id="Layer_1" data-name="Layer 1" xmlns="http://www.w3.org/2000/svg" viewBox="0 0 2008 2008"><defs><style>.cls-1{fill:none;stroke:#f2f2f2;stroke-miterlimit:10;stroke-width:10px;}</style></defs><title>d20w</title><path class="cls-1" d="M390.4,1158.08c14.38,34.49,28.66,69,43.45,103.35,1.93,4.48,6.63,7.76,10,11.6,3.86-3.48,7.79-6.88,11.54-10.48,1-1,1.58-2.57,2.34-3.88Q677,879.24,896.14,499.81c16.43-28.43,32.91-56.87,49.14-85.43,6.45-11.41,3.77-17.91-6-18-60,7.25-119.2,14.42-178.4,21.56l-314.7,37.95c-87.36,10.53-174.75,20.58-262,31.79-41.81,5.37-58.4,36-42.26,74.68Q266.15,860.23,390.4,1158.08Z"/><path class="cls-1" d="M1367.58,436.15C1265.77,423.29,1164,410.39,1058.15,397c-2,.52-11.37.91-12.17,3.76-1.46,5.17.84,12.5,3.84,17.68,34.27,60.15,69,120,103.53,180q191,331.78,382.35,663.33c3,5.28,8.51,9.18,12.84,13.73,3.85-4.73,9.09-8.88,11.35-14.28Q1706.41,912,1852.41,562.5c13.79-33-4.16-64.78-39.51-69.93-32-4.66-64.17-8.3-96.26-12.35Q1542.11,458.2,1367.58,436.15Z"/><path class="cls-1" d="M496.72,1282.95c-9,15.74-3.5,24.95,14.79,25.74,4,.14,8.14,0,12.14,0H997.29l475.16,0c4.56,0,9.14.29,13.66-.14,13.09-1.26,17.62-8.91,12.33-21-2-4.61-4.81-8.89-7.34-13.27L1030.34,475.84c-7.32-12.67-14.31-25.57-22-38-7.17-11.52-16.1-11.58-23.68-.68-2.3,3.31-4.14,7-6.14,10.46l-408.34,707.9C545.64,1197.95,521,1240.38,496.72,1282.95Z"/><path class="cls-1" d="M1495,1372.22c2.92-3.95,5.64-11,4-14.61-1.54-3.37-8.88-4.5-13.88-5.75-3.34-.83-7-.16-10.59-.16H996.34q-242.12-.21-484.2.24c-6.38,0-12.77,3.38-19.15,5.19,2.38,6.25,3.42,13.51,7.31,18.6q226.19,295.94,452.65,591.68c26.13,34.12,60.78,34.06,86.7.18l383.66-501.2C1447.29,1435.07,1471.37,1403.82,1495,1372.22Z"/><path class="cls-1" d="M286.25,434.32c21.16-1.4,42.21-4.45,63.28-7q157.3-19.12,314.62-38.19c98.35-11.92,196.68-24,295.1-35.37,13.8-1.58,17.73-7,17.57-20.16-.58-48.56-.23-97.14-.23-145.71V54.31c0-33.87-5.27-37.25-34.82-20.31Q610.31,224,279.21,414.55c-4.55,2.62-7.2,8.53-10.74,12.9C274.41,429.88,280.5,434.7,286.25,434.32Z"/><path class="cls-1" d="M1033.94,353.81c62.28,7.06,124.45,15.11,186.67,22.64q237.81,29.12,475.81,57.12c8.25,1,20.75,8.53,25.25-4.47,4.44-12.85-9.26-15-16.88-19.41q-317.45-182.47-635-364.75c-10.5-6-20.73-12.79-31.82-17.43-15.83-6.62-19.91-3.41-19.91,13.86V187.1c0,49.08.44,98.17-.31,147.24C1017.56,347,1020.75,352.32,1033.94,353.81Z"/><path class="cls-1" d="M406,1305.6q-104.5-251.08-208.75-502.27c-17.23-41.51-34.25-83.12-51.94-124.44-1.78-4.17-7.5-6.65-11.39-9.91-2.55,4.37-5.85,8.5-7.41,13.2-1.21,3.64-.27,8.06-.27,12.06v368.88q-.1,184.44.06,368.86a200,200,0,0,0,1.9,28.72c3,20.23,7.71,22.31,25.55,12.06,81.06-46.57,161.93-93.48,243.32-139.48C410.37,1325.79,411.56,1318.82,406,1305.6Z"/><path class="cls-1" d="M1865.72,676.48c-.89-3.26-4.35-7.49-7.18-8.06s-7.42,2.16-9.56,4.81c-2.75,3.41-3.86,8.14-5.6,12.34q-40.29,97.21-80.52,194.45-88.27,214.21-177.33,428.1c-5,11.95-2.93,18.54,8.52,24.13,12.66,6.19,24.7,13.67,37,20.67q104.75,59.47,209.58,118.82c15.3,8.66,20.43,6.35,23.24-11.16a193,193,0,0,0,2.36-30.18q.1-183.58.1-367.15,0-185.85,0-371.7C1866.34,686.48,1867,681.21,1865.72,676.48Z"/><path class="cls-1" d="M1819.42,1503.65q-119.33-67.72-238.74-135.31c-19.42-11-21.47-10.52-34.78,6.9q-191.16,250.19-382.29,500.39c-8.91,11.65-18,23.21-26.37,35.21-1.88,2.69-2,7.51-1.09,10.89.52,2,4.58,3,7.27,4.62,5.34-2.9,10.26-5.42,15-8.19q303.94-175.56,607.75-351.33c18.8-10.86,37.85-21.49,55.54-34C1839.19,1520.49,1838.14,1514.28,1819.42,1503.65Z"/><path class="cls-1" d="M716.6,1728.61q-135.35-177.32-270.82-354.55c-5.61-7.28-9.5-16.52-22.61-9Q296.73,1437.18,170,1508.77c-10.86,6.13-12.13,14-3.24,21.55,9.52,8.08,20.39,14.73,31.25,21q318.52,183.78,637.06,367.44c3.94,2.27,7.91,5.68,12.06,6,3.84.3,8-2.85,13.39-5.07-4.4-7-7-11.87-10.3-16.24Q783.39,1816,716.6,1728.61Z"/></svg>